<?xml version="1.0" standalone="no"?>
<!DOCTYPE svg PUBLIC "-//W3C//DTD SVG 20010904//EN"
 "http://www.w3.org/TR/2001/REC-SVG-20010904/DTD/svg10.dtd">
<svg version="1.0" xmlns="http://www.w3.org/2000/svg"
 width="750.000000pt" height="750.000000pt" viewBox="0 0 750.000000 750.000000"
 preserveAspectRatio="xMidYMid meet">
<metadata>
Created by potrace 1.14, written by Peter Selinger 2001-2017
</metadata>
<g transform="translate(0.000000,750.000000) scale(0.100000,-0.100000)"
fill="#000000" stroke="none">
<path d="M0 6119 l0 -1381 43 5 c117 16 268 29 274 24 3 -4 13 -2 23 3 11 6
26 4 44 -5 29 -15 74 -18 148 -9 37 5 49 3 54 -9 4 -12 12 -13 32 -7 15 5 61
11 102 14 41 4 77 11 81 17 4 7 9 5 12 -5 4 -9 18 -16 33 -16 20 0 25 4 20 16
-4 12 -1 14 14 9 11 -4 34 -4 50 0 26 6 29 9 19 27 -23 43 52 138 109 138 9 0
44 13 77 29 56 28 93 31 78 7 -23 -36 -1 -58 28 -27 11 12 30 21 42 21 17 0
19 -2 8 -9 -21 -14 -6 -37 28 -44 33 -7 61 0 61 14 0 5 7 5 18 0 9 -5 24 -12
34 -15 9 -2 38 -31 65 -63 70 -85 186 -178 278 -224 66 -32 92 -39 140 -39
l60 -1 -35 -16 c-52 -24 -207 -21 -285 5 -33 11 -62 18 -65 15 -7 -7 46 -48
100 -77 58 -31 205 -66 278 -66 75 0 173 22 244 53 l57 26 -7 -32 c-14 -65 -8
-210 12 -252 37 -80 63 -127 72 -126 5 0 14 32 21 71 7 39 24 97 39 127 l26
57 28 -112 c36 -141 79 -209 94 -147 6 24 85 115 100 115 4 0 23 12 42 26 19
15 36 25 38 23 1 -2 12 -58 24 -124 37 -200 40 -215 76 -346 32 -115 105 -300
128 -324 5 -5 2 8 -7 30 -93 223 -173 555 -196 819 -6 68 -19 146 -30 179 -12
32 -17 66 -14 78 5 13 -2 33 -19 59 -31 48 -32 69 -5 104 14 18 30 26 53 26
18 0 40 6 51 13 24 19 10 40 -21 33 -32 -8 -30 7 2 30 15 10 39 29 54 42 15
12 31 22 35 22 4 0 34 16 68 37 47 28 69 36 103 35 23 -1 46 2 49 8 14 22 36
8 59 -38 13 -26 33 -58 45 -72 39 -47 24 9 -27 100 -35 62 -53 85 -68 85 -10
0 -34 12 -53 26 l-33 26 19 44 c13 29 39 59 76 88 79 60 157 174 157 227 0 16
2 15 16 -5 9 -13 37 -36 62 -52 44 -28 51 -29 163 -29 156 0 208 -22 135 -56
-26 -13 -42 -34 -75 -98 -66 -132 -53 -155 40 -69 67 63 99 82 99 58 0 -24 30
-17 39 9 7 17 20 25 53 31 24 4 45 9 48 10 28 9 96 25 145 35 33 6 80 16 105
21 31 7 56 6 82 -2 45 -14 76 -6 58 16 -10 12 -8 15 12 19 12 2 45 9 72 14 58
12 86 4 110 -33 17 -25 16 -27 -15 -66 -17 -22 -37 -38 -43 -36 -7 3 -12 -5
-11 -22 0 -14 4 -25 8 -24 19 3 107 85 119 111 16 33 41 39 73 18 18 -12 25
-25 25 -49 0 -41 -19 -110 -33 -118 -11 -8 -2 -39 12 -39 13 0 124 109 146
143 9 15 20 27 24 27 4 0 25 -27 47 -60 21 -33 42 -60 46 -60 9 0 23 -99 19
-140 -2 -19 -8 -44 -13 -55 -20 -37 -67 -218 -68 -260 0 -16 19 -65 41 -108
34 -66 40 -86 36 -119 -7 -51 -57 -104 -110 -119 -32 -8 -36 -13 -27 -25 16
-18 112 -8 158 18 18 10 35 18 38 18 11 0 -6 -55 -33 -107 -15 -28 -24 -55
-20 -59 11 -12 77 27 124 74 42 42 45 43 63 27 17 -16 19 -16 28 2 6 10 8 38
5 63 -5 44 -3 47 41 88 25 23 48 53 52 67 l6 25 29 -21 c38 -27 36 -43 -9
-106 -20 -29 -50 -70 -65 -92 -21 -29 -26 -44 -19 -56 14 -26 21 -23 47 24 14
24 38 60 54 80 73 93 78 134 20 181 l-41 33 7 61 c3 33 13 74 21 90 8 16 14
37 14 47 0 51 105 181 157 194 23 5 32 2 50 -22 13 -15 23 -36 23 -45 0 -9 4
-19 9 -22 18 -12 18 -66 -1 -83 -18 -17 -25 -53 -9 -53 5 0 14 7 21 15 7 8 18
15 25 15 22 0 40 29 27 42 -7 7 -12 22 -12 33 0 58 -77 165 -119 165 -23 0
-88 -46 -124 -87 -45 -51 -96 -135 -97 -158 0 -11 -9 -47 -19 -80 l-18 -60 -7
60 c-5 43 -3 73 7 105 8 25 18 62 22 84 10 57 38 104 96 158 40 37 61 49 97
54 75 11 144 -23 178 -89 28 -53 68 -204 79 -293 1 -11 -2 -74 -7 -138 -6 -90
-14 -134 -35 -184 -50 -127 -189 -305 -278 -357 -22 -13 -73 -31 -114 -39 -81
-17 -96 -26 -104 -59 -20 -88 -67 -331 -67 -344 0 -28 38 15 45 51 3 17 10 50
15 74 6 23 14 61 20 85 5 23 12 61 16 85 7 48 19 58 91 72 27 5 57 12 69 16
18 5 23 -1 37 -43 29 -91 42 -240 27 -309 -9 -39 -8 -50 4 -62 12 -13 19 -5
50 63 20 43 36 81 36 85 0 4 6 20 14 35 l14 27 15 -23 c19 -32 111 -201 116
-214 2 -5 22 -53 46 -105 23 -52 52 -115 63 -140 11 -25 27 -66 36 -92 9 -26
20 -56 25 -65 11 -20 23 -52 27 -70 2 -13 49 -133 69 -178 8 -16 26 -59 40
-95 14 -36 35 -84 46 -107 10 -24 19 -46 19 -50 0 -5 18 -44 39 -88 33 -67 37
-81 24 -88 -8 -5 -62 -6 -121 -3 -115 6 -389 -14 -534 -39 -52 -9 -108 -13
-141 -9 -46 5 -71 1 -153 -26 -55 -18 -103 -36 -109 -40 -5 -5 -21 -10 -35
-13 -24 -4 -24 -4 3 -6 15 0 53 8 84 19 32 11 70 20 85 20 15 0 30 5 33 10 3
6 43 10 88 10 45 0 123 7 172 15 167 29 391 43 555 35 85 -4 200 -6 255 -5 55
1 152 -4 215 -11 63 -7 174 -18 245 -24 72 -6 141 -12 155 -14 44 -6 153 -37
182 -52 15 -8 39 -14 53 -14 29 0 122 -49 175 -92 19 -15 43 -28 52 -28 20 0
52 -16 82 -40 31 -26 50 -72 58 -145 4 -38 10 -94 14 -123 3 -29 2 -58 -4 -65
-13 -17 -25 -68 -23 -97 1 -14 -8 -38 -20 -53 -16 -21 -20 -36 -15 -58 6 -33
-7 -69 -26 -69 -6 0 -53 20 -105 45 -51 25 -99 45 -107 45 -7 0 -30 7 -49 15
-20 8 -51 15 -69 15 -30 0 -156 46 -168 61 -11 14 -591 170 -710 191 -54 9
-198 27 -275 33 -22 2 -62 8 -89 13 -27 6 -55 8 -62 5 -7 -2 -27 9 -45 26 -35
34 -45 34 -34 2 9 -28 41 -44 95 -47 25 -2 74 -8 110 -14 36 -5 108 -14 160
-19 52 -6 131 -18 175 -29 221 -55 375 -95 425 -112 30 -10 71 -21 90 -25 55
-11 133 -37 150 -50 27 -21 143 -62 225 -80 72 -16 124 -34 195 -69 38 -19
104 -57 116 -67 6 -5 31 -9 55 -8 24 1 54 -1 67 -5 16 -6 22 -3 22 8 0 16 -33
22 -88 17 -35 -3 -53 16 -46 48 4 14 10 30 15 35 4 5 3 19 -3 32 -9 18 -7 28
11 50 11 15 21 39 21 55 0 16 7 50 16 76 9 26 17 68 16 93 -1 85 -21 219 -37
243 -18 28 -89 87 -105 87 -17 0 -71 30 -110 61 -39 31 -129 69 -163 69 -12 0
-32 7 -44 15 -32 22 -207 53 -373 65 -80 6 -176 15 -215 20 -38 5 -130 9 -202
9 -126 1 -133 2 -147 24 -21 32 -186 406 -186 421 0 7 -4 16 -9 22 -8 8 -38
80 -86 204 -8 19 -21 60 -31 90 -9 30 -29 82 -45 115 -15 33 -43 100 -63 149
-21 49 -48 110 -61 137 -14 27 -25 50 -25 53 0 3 20 -2 45 -11 46 -15 108 -12
120 7 3 5 -9 16 -27 24 -32 16 -96 101 -85 113 4 3 20 0 37 -7 42 -17 131 -7
175 20 39 24 45 40 15 40 -48 0 -245 84 -235 101 4 5 15 9 25 9 27 0 180 50
211 69 68 42 109 72 109 81 0 6 5 10 11 10 6 0 25 11 43 25 18 14 37 25 42 25
5 0 32 18 59 41 27 22 57 45 67 50 10 6 16 14 13 20 -4 5 -1 9 5 9 7 0 10 6 7
14 -3 8 12 25 41 45 55 36 87 64 125 109 15 19 28 31 28 28 1 -3 3 -10 4 -16
1 -5 3 -17 4 -27 2 -27 13 -7 16 29 2 18 3 39 4 46 1 15 78 17 83 2 4 -13 135
-18 163 -6 16 6 17 6 5 -3 -12 -9 -10 -11 13 -11 20 0 30 -6 34 -20 3 -11 14
-20 24 -20 21 0 26 26 7 32 -20 7 14 50 56 73 20 11 36 23 36 27 0 3 33 4 74
1 92 -7 166 17 166 55 0 12 4 22 8 22 5 0 14 11 20 25 8 17 34 36 76 55 35 17
68 30 72 30 4 0 15 7 24 15 11 10 45 16 101 19 46 2 96 7 112 11 l27 7 0 195
c0 178 -1 194 -17 191 -10 -2 -24 -17 -32 -33 -9 -17 -22 -41 -31 -55 -8 -14
-20 -45 -25 -70 -9 -41 -15 -47 -65 -73 -44 -22 -59 -26 -78 -17 -32 14 -57
13 -72 -5 -9 -11 -16 -13 -24 -5 -5 5 -25 10 -42 10 -18 0 -35 4 -38 9 -3 5
-38 9 -78 10 -40 1 -88 6 -106 12 -27 9 -40 7 -76 -10 -23 -12 -69 -23 -102
-26 -32 -2 -69 -7 -81 -11 -22 -6 -29 6 -24 39 1 4 -6 10 -14 13 -58 22 73
174 149 174 14 0 16 -7 10 -35 -7 -41 7 -52 50 -35 33 12 54 3 31 -14 -15 -11
-14 -13 4 -30 19 -17 25 -18 61 -6 22 7 45 19 51 26 16 19 -1 64 -27 74 -16 7
-24 17 -24 34 0 13 -6 29 -14 35 -15 13 -30 119 -20 144 3 10 12 17 20 17 8 0
14 7 14 16 0 11 6 14 20 9 15 -5 24 1 37 23 11 19 28 33 45 36 35 7 119 -3
136 -17 7 -5 34 -7 60 -4 39 5 59 0 120 -28 39 -19 72 -39 72 -44 0 -6 11 -23
25 -38 14 -16 34 -40 46 -55 11 -16 25 -28 30 -28 5 0 9 433 9 1105 l0 1105
-3750 0 -3750 0 0 -1381z m3953 -653 c15 -10 27 -22 27 -26 0 -8 -57 -24 -129
-35 l-44 -7 8 38 c4 22 7 66 6 99 l-2 60 53 -56 c29 -30 65 -63 81 -73z m3493
86 c17 -11 22 -35 13 -59 -6 -18 -13 -20 -36 -14 -34 9 -44 48 -17 68 20 15
25 16 40 5z m-3299 -52 c9 -8 18 -14 20 -12 2 1 11 2 21 2 14 0 15 -2 2 -10
-30 -19 -58 -11 -74 22 -23 46 -21 46 31 -2z m401 -80 c8 -23 8 -30 -2 -30
-21 0 -33 20 -28 45 5 30 17 25 30 -15z m-3373 -220 c3 -5 1 -10 -4 -10 -6 0
-11 5 -11 10 0 6 2 10 4 10 3 0 8 -4 11 -10z m1693 -123 c16 -18 16 -20 -8
-38 -60 -47 -105 -86 -136 -119 -18 -19 -36 -32 -39 -28 -4 3 -9 24 -11 45 -5
35 -1 43 60 111 36 40 71 82 77 94 11 21 12 20 26 -13 7 -18 22 -42 31 -52z
m-1664 36 c-4 -16 -11 -33 -16 -40 -13 -16 8 -29 52 -32 31 -2 24 -19 -11 -26
-22 -5 -36 -3 -46 8 -10 10 -28 13 -52 10 -20 -2 -43 1 -51 6 -23 16 34 70 82
77 21 4 38 10 38 15 0 5 2 9 5 9 3 0 2 -12 -1 -27z m-457 -339 c-3 -3 -12 -4
-19 -1 -8 3 -5 6 6 6 11 1 17 -2 13 -5z m5585 -221 c-6 -10 -30 -29 -54 -41
l-43 -23 49 46 c49 46 66 53 48 18z"/>
<path d="M3816 5119 c-57 -62 -67 -79 -42 -79 17 0 126 110 126 128 0 27 -30
9 -84 -49z"/>
<path d="M4000 5100 c-36 -3 -75 -12 -88 -19 -35 -19 -106 -171 -73 -159 5 2
28 27 51 57 40 50 44 53 56 36 13 -18 14 -18 14 2 0 24 18 33 62 33 l30 0 -18
-27 c-23 -36 -46 -54 -61 -48 -23 8 -14 -13 18 -39 43 -37 75 -42 116 -21 41
22 71 62 84 110 10 35 10 35 70 35 61 0 110 -21 166 -73 24 -21 50 -18 59 8 8
21 -14 38 -103 81 -70 33 -74 34 -195 33 -68 -1 -152 -5 -188 -9z"/>
<path d="M6730 5040 c0 -5 4 -10 9 -10 6 0 13 5 16 10 3 6 -1 10 -9 10 -9 0
-16 -4 -16 -10z"/>
<path d="M3057 4923 c-14 -13 -6 -23 32 -42 58 -30 74 -5 19 29 -36 22 -41 23
-51 13z"/>
<path d="M4225 4909 c-22 -6 -67 -14 -100 -19 -128 -19 -179 -30 -188 -39 -22
-22 40 -20 145 3 62 14 138 28 168 31 80 9 102 14 95 25 -7 12 -66 11 -120 -1z"/>
<path d="M3004 4842 c-17 -9 -66 -44 -108 -77 -66 -52 -78 -66 -90 -110 -10
-31 -12 -53 -6 -59 11 -11 10 -14 37 45 12 26 35 56 52 68 l30 22 15 -29 c51
-99 186 -71 186 38 0 37 2 41 15 30 11 -9 19 -10 26 -3 16 16 -4 47 -45 72
-40 25 -70 26 -112 3z m-4 -71 c0 -26 -34 -66 -48 -57 -17 10 -15 19 9 50 24
31 39 33 39 7z"/>
<path d="M5340 4717 c0 -7 17 -31 38 -52 21 -22 48 -62 61 -88 23 -47 23 -49
5 -82 -22 -41 -99 -126 -139 -152 -16 -11 -52 -26 -78 -34 -64 -18 -110 -57
-106 -88 l4 -24 32 27 c17 14 53 36 80 47 119 51 136 63 196 144 56 76 59 82
55 127 -5 50 -33 99 -89 156 -32 33 -59 42 -59 19z"/>
<path d="M3176 4658 c-4 -18 -11 -116 -16 -218 -5 -102 -13 -201 -18 -220 -5
-19 -28 -62 -50 -95 -23 -33 -42 -64 -42 -70 0 -15 166 -155 184 -155 9 0 16
2 16 4 0 2 -34 38 -75 81 -41 42 -75 80 -75 84 0 4 17 38 37 76 l37 69 8 176
c4 96 13 197 18 223 13 64 13 77 -4 77 -7 0 -17 -15 -20 -32z"/>
<path d="M2980 4594 c-47 -24 -77 -44 -67 -44 9 0 25 4 35 9 44 22 71 32 116
44 56 14 75 37 29 36 -15 0 -66 -20 -113 -45z"/>
<path d="M3358 3974 c-16 -15 -7 -24 25 -24 18 0 38 -5 45 -12 9 -9 15 -9 24
0 9 9 9 15 1 23 -13 13 -85 23 -95 13z"/>
<path d="M5102 3723 c-6 -10 -13 -34 -17 -53 -4 -19 -14 -56 -23 -82 -12 -35
-14 -50 -5 -59 8 -8 15 2 28 38 9 26 21 57 27 67 6 11 14 33 19 48 13 48 -9
79 -29 41z"/>
<path d="M5122 3618 c-7 -7 -12 -19 -12 -27 0 -8 -6 -37 -14 -65 -79 -279 -83
-296 -61 -296 14 0 16 -7 12 -32 -7 -49 -45 -215 -63 -278 -8 -30 -23 -80 -31
-110 -9 -30 -19 -59 -23 -65 -4 -5 -11 -26 -14 -45 -4 -19 -11 -44 -16 -55
-19 -45 -69 -203 -75 -240 -14 -77 17 -20 65 122 26 76 56 162 68 190 11 29
23 72 27 95 4 23 11 49 16 58 5 8 15 42 24 75 43 169 58 248 60 330 2 65 11
124 35 213 21 79 30 126 24 132 -7 7 -14 6 -22 -2z"/>
<path d="M4808 3403 c-86 -87 -194 -201 -239 -253 -45 -52 -100 -115 -123
-140 -22 -25 -59 -67 -81 -95 -21 -27 -99 -111 -172 -185 -160 -163 -183 -175
-368 -189 -66 -5 -127 -9 -135 -9 -40 3 -63 -3 -55 -11 13 -13 315 4 363 20
19 6 53 24 76 40 47 33 85 40 96 19 22 -40 40 -85 40 -102 0 -10 4 -18 9 -18
4 0 16 -21 26 -47 10 -27 29 -70 43 -98 29 -59 65 -200 57 -226 -4 -11 -5 -19
-2 -19 11 0 267 133 263 137 -2 2 -52 -18 -110 -46 -57 -28 -111 -51 -119 -51
-10 0 -17 16 -21 48 -7 53 -26 104 -62 175 -13 26 -24 51 -24 56 0 6 -10 27
-22 48 -13 21 -24 53 -26 73 -11 102 -10 105 71 115 31 4 47 11 47 21 0 18
-39 18 -108 0 -29 -7 -52 -10 -52 -7 1 3 48 55 105 115 58 61 107 118 111 128
3 10 9 18 14 18 4 0 41 39 81 87 41 49 101 116 135 150 33 35 59 63 57 63 -6
0 67 78 185 196 98 99 131 144 104 144 -4 0 -78 -71 -164 -157z"/>
<path d="M3206 3443 c-9 -87 -23 -130 -55 -170 -21 -26 -28 -30 -44 -21 -19
10 -19 9 -1 -22 23 -38 44 -58 44 -41 0 13 39 5 79 -15 14 -8 35 -14 46 -14
65 -1 83 -26 39 -55 -14 -9 -24 -19 -21 -22 3 -2 30 12 61 33 42 27 66 37 93
36 48 -2 51 -8 19 -33 -14 -11 -32 -26 -39 -33 -24 -24 -73 -45 -143 -60 -38
-9 -79 -18 -92 -21 -12 -3 -34 -16 -50 -30 -52 -47 -114 -95 -121 -95 -5 0
-15 19 -24 42 -19 48 -18 51 56 106 41 29 61 37 102 39 27 1 64 3 80 3 l30 2
-29 8 c-16 5 -33 15 -37 22 -7 10 -11 10 -21 0 -6 -6 -24 -12 -39 -12 -18 0
-51 -18 -93 -50 -36 -27 -70 -50 -75 -50 -6 0 -16 10 -22 23 -10 18 -123 171
-139 187 -3 3 -21 28 -40 55 -40 58 -59 79 -66 73 -5 -6 92 -152 129 -192 15
-17 27 -36 27 -42 0 -6 7 -17 15 -24 9 -7 15 -20 13 -29 -1 -9 12 -36 30 -60
18 -24 32 -51 32 -60 -1 -20 -121 -75 -147 -67 -27 9 -103 83 -103 100 0 8 5
18 10 21 6 3 10 10 10 16 0 16 -26 10 -45 -11 -15 -17 -16 -23 -5 -50 17 -40
92 -98 138 -106 28 -6 48 -1 95 24 90 46 114 22 57 -56 -57 -79 -126 -92 -209
-41 -28 18 -51 35 -51 39 0 4 -17 19 -37 33 -21 14 -54 40 -73 57 -19 18 -44
40 -55 49 -32 26 -80 92 -105 146 -21 46 -23 48 -33 28 -8 -18 -2 -35 27 -90
38 -69 64 -99 149 -167 67 -55 61 -76 -24 -76 -34 0 -41 4 -61 40 -31 52 -87
83 -160 86 -32 2 -60 -1 -63 -6 -9 -15 31 -30 80 -30 61 0 77 -10 111 -67 15
-26 36 -56 46 -67 10 -11 18 -25 18 -31 0 -6 13 -26 29 -46 45 -54 91 -137 91
-164 0 -13 3 -25 8 -27 8 -4 52 -129 52 -151 0 -8 -36 -49 -80 -90 -76 -71
-94 -97 -69 -97 6 0 40 26 77 57 l65 58 -6 -49 c-4 -26 -12 -100 -18 -164 -12
-131 -36 -191 -97 -248 -53 -49 -82 -44 -97 19 -6 23 -4 27 14 27 41 0 141 58
141 82 0 15 -27 8 -80 -18 -28 -14 -66 -27 -83 -27 -31 -2 -32 -3 -31 -50 0
-51 -8 -59 -28 -24 -9 15 -13 70 -13 180 0 94 -4 161 -10 165 -5 4 -10 12 -11
17 -2 52 -24 112 -52 147 -96 118 -143 166 -175 178 -17 8 -40 20 -50 28 -13
11 -20 13 -28 5 -8 -8 -3 -22 19 -50 17 -21 54 -66 82 -101 149 -182 190 -249
192 -310 3 -63 -13 -253 -27 -333 -17 -90 -41 -139 -79 -157 -31 -16 -174 -18
-189 -3 -5 5 -11 28 -12 51 -1 23 -14 72 -28 108 -13 37 -30 90 -36 117 -39
173 -53 207 -117 270 -135 134 -215 208 -221 202 -10 -11 28 -60 95 -122 36
-33 88 -81 115 -106 36 -33 51 -55 53 -75 2 -33 50 -238 63 -269 4 -11 18 -42
30 -68 19 -43 20 -51 7 -80 -7 -18 -32 -51 -55 -73 -35 -35 -51 -44 -104 -53
-54 -10 -65 -9 -85 7 -26 19 -86 113 -97 152 l-7 25 24 -27 c22 -26 48 -37 48
-21 0 10 -111 170 -158 228 -4 6 -23 36 -42 67 -19 32 -41 58 -47 58 -19 0
-16 -20 8 -59 l21 -34 -51 6 c-41 5 -51 3 -51 -9 0 -8 9 -18 21 -22 19 -7 14
-14 -44 -65 -36 -31 -68 -57 -71 -57 -3 0 -7 33 -9 73 l-3 72 -2 -79 c-1 -59
-6 -85 -19 -99 -39 -44 18 -9 181 114 l62 46 27 -37 c15 -21 27 -42 27 -47 0
-8 -106 -92 -155 -123 -40 -26 -194 -155 -189 -159 2 -2 12 3 22 12 22 20 58
22 65 5 3 -7 6 -1 6 13 1 23 27 59 44 59 11 0 130 90 181 136 34 31 66 20 66
-24 0 -40 61 -179 94 -215 41 -45 84 -54 160 -32 46 14 68 28 105 67 45 47 48
49 64 33 14 -13 32 -16 89 -13 69 3 73 2 84 -22 18 -37 45 -201 51 -310 5 -74
2 -102 -10 -125 -8 -17 -64 -75 -123 -130 -59 -55 -132 -122 -161 -149 -29
-27 -53 -55 -53 -62 0 -17 15 -18 32 -1 7 7 27 23 43 36 17 12 46 37 65 54 19
18 62 55 95 82 76 63 76 64 104 103 13 18 25 32 27 30 2 -2 -5 -36 -16 -76
-29 -115 -35 -172 -17 -172 8 0 20 15 26 33 8 21 14 28 19 19 6 -9 23 -1 63
29 72 54 109 74 109 57 -1 -12 -11 -56 -46 -188 -8 -30 -26 -107 -39 -170 -14
-63 -32 -144 -40 -180 -9 -36 -26 -125 -40 -199 -13 -73 -27 -137 -32 -142 -5
-5 -522 -10 -1148 -12 -627 -1 548 -3 2612 -5 l3752 -2 -4 43 c-13 125 -14
151 -6 132 7 -15 10 -3 10 43 1 34 -5 72 -11 83 -10 17 -10 23 0 26 6 3 12 12
12 20 0 11 -7 14 -24 9 -19 -5 -33 2 -64 32 -22 21 -59 54 -82 73 -23 19 -48
39 -54 44 -68 59 -140 117 -183 148 -28 21 -53 41 -55 45 -2 4 -27 25 -55 47
-29 21 -53 42 -53 46 0 4 -21 21 -47 38 -27 16 -62 43 -79 58 -17 15 -50 44
-74 63 -23 19 -50 42 -60 51 -28 26 -249 193 -273 206 -26 14 -105 50 -197 90
-36 15 -103 47 -150 70 -46 24 -92 43 -101 43 -10 0 -21 4 -24 10 -3 5 -24 14
-46 20 -22 6 -72 33 -112 60 -40 26 -94 61 -122 76 -145 80 -250 134 -261 134
-7 0 -15 4 -18 8 -7 11 -215 77 -291 92 -71 15 -227 24 -180 11 17 -5 46 -9
65 -10 19 -1 48 -8 64 -16 15 -8 37 -15 47 -15 89 0 364 -117 584 -248 59 -35
221 -153 260 -189 66 -61 162 -133 176 -133 25 0 13 33 -19 52 -15 9 -39 27
-53 40 -14 13 -38 34 -54 46 -15 12 -26 24 -24 26 2 3 63 -24 134 -60 72 -35
136 -64 143 -64 7 0 40 -14 74 -30 33 -17 64 -30 69 -30 6 0 21 -11 35 -25 14
-14 29 -25 34 -25 6 0 27 -15 47 -33 21 -19 58 -48 83 -65 25 -18 86 -66 135
-108 50 -42 116 -95 148 -119 32 -25 93 -76 135 -114 42 -38 102 -86 132 -107
30 -20 57 -41 60 -45 3 -4 23 -21 45 -39 45 -35 107 -88 166 -141 40 -36 40
-38 50 -130 5 -52 12 -124 14 -161 l5 -68 -30 0 c-24 0 -30 4 -30 23 0 12 -7
34 -14 49 -8 15 -24 69 -36 120 -11 51 -25 113 -31 137 -11 49 -46 104 -60 96
-11 -8 -12 -38 -1 -51 5 -5 17 -45 27 -89 9 -44 26 -114 37 -155 11 -41 22
-87 25 -102 l5 -28 -2041 0 -2041 0 0 89 c0 67 8 119 30 206 16 64 34 125 40
135 5 10 17 45 26 77 78 284 136 471 164 522 6 12 9 27 7 34 -5 14 -41 -63
-63 -137 -8 -28 -19 -58 -24 -67 -5 -9 -11 -37 -15 -63 -4 -25 -11 -46 -16
-46 -5 0 -9 -9 -9 -20 0 -11 -6 -37 -14 -57 -8 -21 -37 -112 -66 -203 -28 -91
-58 -182 -66 -203 -9 -24 -14 -78 -14 -152 l0 -115 -460 0 -460 0 0 25 c0 14
4 44 10 67 5 24 30 147 56 273 26 127 62 286 81 355 19 69 39 144 44 167 9 36
17 45 62 68 100 50 137 77 214 153 83 82 125 144 193 282 22 46 45 89 49 95 4
5 33 57 63 115 75 141 116 267 122 372 5 77 5 79 -4 28 -32 -183 -59 -254
-157 -418 -24 -40 -58 -103 -77 -140 -83 -168 -129 -238 -200 -307 -95 -93
-131 -122 -175 -141 -122 -54 -264 -130 -277 -148 -13 -19 -14 -18 -14 16 0
20 4 39 9 42 8 6 24 99 19 113 -2 5 -8 7 -15 7 -15 -2 -10 165 8 276 13 82 50
225 80 307 17 47 17 53 3 61 -14 8 -14 10 2 17 11 4 40 7 66 6 54 -3 91 14
134 61 61 65 73 104 102 323 l8 60 18 -38 c20 -40 121 -137 143 -137 26 0 12
26 -40 72 -37 33 -58 60 -67 90 -8 24 -20 54 -27 68 -7 14 -13 31 -13 38 0 15
32 16 47 1 13 -13 93 -8 94 6 0 6 -18 13 -41 17 -90 16 -123 57 -139 174 -14
109 -9 131 41 175 23 21 57 43 73 49 95 37 114 48 153 87 23 24 42 50 42 58 0
23 191 175 221 175 56 0 76 -69 40 -139 -10 -20 -35 -72 -56 -116 -20 -44 -70
-146 -111 -227 -41 -81 -74 -151 -74 -157 0 -5 12 -9 28 -8 26 2 27 -1 30 -45
3 -44 5 -48 28 -48 24 0 24 1 10 22 -9 12 -16 33 -16 46 0 12 -9 35 -21 51
l-20 28 34 59 c19 32 45 82 57 109 34 77 119 248 141 284 10 17 24 29 29 26
25 -16 2 44 -32 81 -21 24 -15 54 12 54 27 0 141 54 170 81 66 60 67 61 86 51
11 -6 46 -21 79 -35 53 -22 63 -31 85 -74 30 -61 48 -83 66 -83 11 0 10 8 -4
38 -9 20 -20 39 -23 42 -4 3 -17 41 -30 84 -27 88 -49 111 -49 51 0 -29 -3
-35 -12 -28 -7 6 -40 21 -73 33 -51 19 -82 23 -200 25 -77 1 -156 5 -177 9
-39 9 -86 45 -70 55 19 12 52 87 52 119 0 18 5 53 11 78 8 31 8 49 2 55 -7 7
-13 -12 -17 -58z m-516 -678 c0 -8 -9 -19 -20 -25 -15 -8 -20 -8 -20 3 0 14
19 37 32 37 4 0 8 -7 8 -15z m-84 -64 c-23 -22 -28 -24 -36 -11 -16 25 -11 40
14 40 14 0 28 5 32 12 6 9 9 9 12 -1 2 -7 -8 -25 -22 -40z m119 10 c-4 -15 -1
-18 19 -14 13 3 27 -1 31 -8 6 -9 2 -11 -13 -7 -14 4 -19 2 -16 -7 3 -7 -11
-22 -30 -35 -20 -12 -36 -26 -36 -32 0 -6 -7 -8 -15 -4 -8 3 -15 1 -15 -4 0
-5 -7 -7 -15 -4 -9 4 -15 19 -15 35 0 19 5 29 15 29 8 0 15 4 15 9 0 5 9 11
20 14 11 3 20 13 20 22 0 11 5 15 15 11 8 -3 15 -1 15 4 0 6 3 10 6 10 3 0 3
-8 -1 -19z m-529 -329 c-8 -7 -25 8 -37 31 -11 21 -10 21 15 -2 14 -14 24 -26
22 -29z m127 -152 c3 -11 2 -20 -2 -20 -3 0 -12 9 -19 20 -10 16 -10 20 2 20
7 0 16 -9 19 -20z m72 -490 c3 -5 1 -10 -4 -10 -6 0 -11 5 -11 10 0 6 2 10 4
10 3 0 8 -4 11 -10z m-28 -136 c-23 -63 -35 -107 -43 -149 -4 -22 -13 -53 -20
-70 l-12 -30 -6 40 c-4 22 -11 55 -16 73 -8 31 -5 37 28 70 20 21 46 54 57 74
24 47 30 42 12 -8z m5110 -1381 c-3 -10 -5 -4 -5 12 0 17 2 24 5 18 2 -7 2
-21 0 -30z"/>
<path d="M2630 2619 c0 -5 5 -7 10 -4 6 3 10 8 10 11 0 2 -4 4 -10 4 -5 0 -10
-5 -10 -11z"/>
<path d="M2555 3348 c-45 -16 -117 -50 -113 -54 2 -2 33 8 68 23 80 32 130 39
161 22 22 -11 23 -11 10 4 -15 19 -77 21 -126 5z"/>
<path d="M2420 3269 c0 -5 5 -7 10 -4 6 3 10 8 10 11 0 2 -4 4 -10 4 -5 0 -10
-5 -10 -11z"/>
<path d="M2385 3232 c-6 -4 -19 -27 -29 -52 -10 -25 -26 -61 -35 -80 -19 -41
-88 -139 -110 -158 -29 -23 -83 -42 -137 -48 -30 -4 -54 -10 -54 -15 0 -4 -9
-10 -19 -14 -11 -3 -24 -18 -30 -33 -6 -15 -22 -46 -37 -69 -14 -24 -22 -43
-18 -43 5 0 22 25 39 55 47 88 67 101 165 114 68 9 89 15 103 33 10 13 30 37
44 53 23 27 76 131 117 228 17 39 17 41 1 29z"/>
<path d="M3422 2959 c2 -7 33 -24 69 -36 84 -30 81 -30 86 -17 6 17 -63 54
-115 61 -35 5 -44 3 -40 -8z"/>
<path d="M3355 2829 c15 -48 26 -72 30 -67 7 7 -15 77 -26 84 -8 4 -9 -1 -4
-17z"/>
<path d="M3391 2735 c-2 -35 33 -135 57 -163 22 -25 22 -25 9 -2 -8 14 -22 52
-32 85 -9 33 -21 69 -25 80 -8 19 -9 19 -9 0z"/>
<path d="M1883 2693 c-12 -8 -44 -21 -70 -28 -26 -7 -39 -14 -27 -14 26 -1
112 28 120 41 10 16 0 17 -23 1z"/>
<path d="M1709 2623 c-13 -15 -12 -15 9 -4 23 12 28 21 13 21 -5 0 -15 -7 -22
-17z"/>
<path d="M1675 2599 c-4 -6 -5 -12 -2 -15 2 -3 7 2 10 11 7 17 1 20 -8 4z"/>
<path d="M1642 2510 c0 -14 2 -19 5 -12 2 6 2 18 0 25 -3 6 -5 1 -5 -13z"/>
<path d="M1589 2424 c-13 -14 -17 -23 -9 -19 13 5 46 45 37 45 -2 0 -14 -11
-28 -26z"/>
<path d="M1535 2393 c-11 -3 -24 -10 -30 -15 -12 -13 35 0 50 13 5 5 7 8 5 8
-3 -1 -14 -3 -25 -6z"/>
<path d="M1404 2319 c-19 -22 -19 -22 4 -8 12 8 22 17 22 21 0 12 -6 9 -26
-13z"/>
<path d="M4825 2332 c-11 -2 -24 -8 -30 -12 -5 -4 -35 -15 -65 -25 -52 -17
-114 -54 -106 -63 4 -3 215 85 225 94 8 7 -4 10 -24 6z"/>
<path d="M1343 2095 l-1 -150 13 75 c7 41 10 80 6 85 -3 6 -9 39 -12 75 -4 44
-6 16 -6 -85z"/>
<path d="M3176 2185 c4 -11 10 -24 15 -30 4 -5 9 -21 12 -35 4 -23 4 -22 5 5
1 17 -7 41 -18 55 -16 20 -19 21 -14 5z"/>
<path d="M4310 2080 c-8 -5 -12 -11 -9 -14 2 -3 11 -1 19 4 8 5 12 11 9 14 -2
3 -11 1 -19 -4z"/>
<path d="M5220 2077 c-3 -3 -34 -8 -70 -12 -94 -9 -302 -44 -325 -55 -20 -9
-95 -31 -129 -37 -11 -2 -34 -11 -50 -19 -49 -25 -118 -44 -159 -44 -22 0 -53
-6 -70 -14 -18 -7 -59 -22 -92 -31 -71 -21 -115 -42 -115 -55 0 -12 27 -2 62
22 14 10 40 18 57 18 18 0 48 7 69 16 20 8 72 22 115 29 43 8 103 25 135 38
71 30 111 41 287 78 174 36 299 48 485 43 105 -2 133 -1 100 6 -55 11 -293 25
-300 17z"/>
<path d="M4110 1935 c-11 -13 -10 -14 4 -9 9 3 16 10 16 15 0 13 -6 11 -20 -6z"/>
<path d="M1333 1905 c0 -22 2 -30 4 -17 2 12 2 30 0 40 -3 9 -5 -1 -4 -23z"/>
<path d="M4044 1869 c-16 -16 -22 -28 -14 -24 13 5 56 55 47 55 -2 0 -16 -14
-33 -31z"/>
<path d="M4775 1829 c-91 -18 -145 -33 -145 -39 0 -8 207 33 216 43 9 9 -18 7
-71 -4z"/>
<path d="M3979 1793 c-13 -16 -12 -17 4 -4 9 7 17 15 17 17 0 8 -8 3 -21 -13z"/>
<path d="M4164 1785 c-10 -8 -14 -15 -8 -15 5 0 19 7 30 15 10 8 14 15 8 15
-5 0 -19 -7 -30 -15z"/>
<path d="M4588 1773 c6 -2 18 -2 25 0 6 3 1 5 -13 5 -14 0 -19 -2 -12 -5z"/>
<path d="M4535 1760 c-3 -5 -15 -10 -26 -10 -17 0 -48 -11 -134 -50 -11 -5
-51 -23 -89 -40 -38 -17 -104 -52 -145 -79 -42 -26 -83 -51 -91 -54 -141 -64
-468 -302 -445 -325 4 -4 12 0 18 9 10 13 95 81 197 157 32 25 190 122 197
122 3 0 58 31 122 69 122 72 281 151 304 151 7 0 22 7 33 15 10 8 29 15 40 15
12 0 27 7 34 15 8 9 9 15 2 15 -6 0 -14 -4 -17 -10z"/>
<path d="M3935 1742 c-37 -32 -113 -127 -116 -147 -2 -11 -23 -33 -46 -50 -23
-16 -42 -34 -42 -39 -1 -5 5 -3 12 3 8 6 55 31 105 56 56 27 92 51 92 60 0 18
-14 19 -42 4 -28 -15 -35 -3 -12 24 20 22 77 107 72 107 -2 -1 -12 -8 -23 -18z"/>
<path d="M4094 1744 c-18 -14 -18 -14 6 -3 31 14 36 19 24 19 -6 0 -19 -7 -30
-16z"/>
<path d="M3950 1665 c-14 -16 -3 -20 19 -6 8 5 9 11 3 15 -5 3 -15 -1 -22 -9z"/>
<path d="M1201 1590 c-13 -11 -19 -20 -14 -20 6 0 18 9 28 20 23 25 17 25 -14
0z"/>
<path d="M3656 1470 c-22 -17 -35 -30 -29 -30 6 0 27 14 48 30 49 39 32 39
-19 0z"/>
<path d="M1015 1444 c-19 -15 -22 -21 -9 -15 18 9 52 41 43 41 -2 0 -17 -12
-34 -26z"/>
<path d="M3573 1405 c-15 -13 -23 -25 -17 -25 6 0 21 11 34 25 30 32 19 32
-17 0z"/>
<path d="M950 1375 c0 -2 5 -16 12 -30 16 -35 29 -31 15 5 -10 25 -27 42 -27
25z"/>
<path d="M3501 1340 c-13 -11 -19 -20 -14 -20 6 0 18 9 28 20 23 25 17 25 -14
0z"/>
<path d="M1341 1314 c0 -16 4 -38 9 -49 6 -13 7 -5 3 25 -7 53 -13 66 -12 24z"/>
<path d="M3449 1293 c-13 -16 -12 -17 4 -4 16 13 21 21 13 21 -2 0 -10 -8 -17
-17z"/>
<path d="M1361 1210 c-1 -16 23 -106 59 -225 12 -38 25 -92 30 -120 9 -49 9
-48 5 15 -2 36 -14 92 -26 125 -11 33 -32 96 -44 140 -13 44 -24 73 -24 65z"/>
<path d="M3377 1213 c-4 -3 -7 -11 -7 -17 0 -6 5 -5 12 2 6 6 9 14 7 17 -3 3
-9 2 -12 -2z"/>
<path d="M3556 1148 c-9 -12 -16 -29 -16 -38 0 -8 10 0 21 18 24 37 20 55 -5
20z"/>
<path d="M3335 1136 c-12 -14 -68 -95 -80 -116 -5 -8 6 -2 25 14 19 15 43 46
53 69 18 42 19 53 2 33z"/>
<path d="M3213 963 c-43 -55 -50 -74 -14 -33 32 35 56 70 47 70 -2 0 -17 -17
-33 -37z"/>
<path d="M3124 854 c-35 -45 -45 -69 -14 -34 55 59 63 70 54 70 -6 0 -24 -16
-40 -36z"/>
<path d="M3029 727 c-67 -90 -101 -147 -96 -160 2 -6 12 7 22 31 10 23 22 42
27 42 4 0 8 5 8 11 0 7 20 37 45 67 38 46 53 72 43 72 -2 0 -24 -28 -49 -63z"/>
<path d="M1450 719 c0 -24 23 -21 28 4 2 10 -3 17 -12 17 -10 0 -16 -9 -16
-21z"/>
<path d="M1421 623 c0 -25 1 -26 9 -8 12 27 12 35 0 35 -5 0 -10 -12 -9 -27z"/>
<path d="M1412 560 c0 -14 2 -19 5 -12 2 6 2 18 0 25 -3 6 -5 1 -5 -13z"/>
<path d="M2895 515 c-14 -20 -25 -39 -23 -44 2 -5 15 11 30 35 33 53 30 57 -7
9z"/>
<path d="M1395 483 c-3 -21 -11 -57 -17 -81 -6 -23 -8 -45 -6 -48 3 -3 10 17
16 43 16 73 23 123 18 123 -3 0 -8 -17 -11 -37z"/>
<path d="M2803 373 c-73 -113 -90 -150 -58 -123 8 7 15 17 15 23 0 6 23 46 51
89 29 43 50 81 47 83 -3 3 -28 -30 -55 -72z"/>
<path d="M1362 320 c0 -14 2 -19 5 -12 2 6 2 18 0 25 -3 6 -5 1 -5 -13z"/>
<path d="M1331 249 c-24 -54 -63 -180 -58 -186 5 -4 12 13 58 142 31 87 31
113 0 44z"/>
</g>
</svg>
