<?xml version="1.0" standalone="no"?>
<!DOCTYPE svg PUBLIC "-//W3C//DTD SVG 20010904//EN"
 "http://www.w3.org/TR/2001/REC-SVG-20010904/DTD/svg10.dtd">
<svg version="1.0" xmlns="http://www.w3.org/2000/svg"
 width="223.000000pt" height="223.000000pt" viewBox="0 0 223.000000 223.000000"
 preserveAspectRatio="xMidYMid meet">
<metadata>
Created by potrace 1.14, written by Peter Selinger 2001-2017
</metadata>
<g transform="translate(0.000000,223.000000) scale(0.100000,-0.100000)"
fill="#000000" stroke="none">
<path d="M892 2102 c32 -15 57 -31 58 -35 0 -5 -3 -6 -7 -4 -5 3 -30 8 -58 11
-27 4 -59 9 -70 13 -17 5 -18 4 -7 -10 7 -8 25 -18 40 -22 l27 -8 -25 -7 c-14
-4 -58 -6 -97 -5 -40 1 -73 0 -73 -2 0 -1 17 -11 38 -22 20 -11 30 -20 22 -21
-8 0 -41 -18 -74 -40 -47 -32 -68 -40 -105 -41 -35 0 -41 -2 -26 -9 11 -5 34
-9 50 -9 23 -1 27 -4 15 -11 -8 -5 -26 -10 -40 -11 l-25 -1 28 -10 c15 -5 27
-14 27 -19 0 -4 -12 -15 -27 -22 -27 -13 -64 -14 -110 -2 -29 7 -30 -9 -2 -28
20 -15 20 -15 -10 -22 -31 -7 -43 -25 -17 -25 7 0 21 -11 30 -25 9 -14 12 -25
7 -25 -5 0 -12 7 -15 16 -4 9 -9 14 -12 11 -3 -3 3 -23 14 -45 l20 -41 -31 -7
-31 -6 27 -15 c15 -7 27 -19 27 -27 0 -7 11 -23 25 -36 l24 -23 -22 -18 -22
-18 37 -1 c20 0 40 -5 43 -10 3 -6 23 -19 43 -31 l37 -20 -38 5 c-45 6 -40
-10 6 -22 27 -7 32 -12 29 -36 -3 -24 -1 -26 22 -20 14 3 26 2 26 -3 0 -6 11
-15 25 -21 23 -11 23 -13 10 -39 -18 -34 -11 -42 16 -17 33 30 67 25 105 -14
19 -19 34 -43 34 -53 0 -10 18 -53 40 -95 22 -43 40 -79 40 -80 0 -1 -12 -5
-27 -9 -16 -3 -53 -28 -83 -56 -65 -59 -131 -104 -217 -149 -66 -34 -78 -44
-40 -35 12 3 35 7 50 9 15 3 51 12 80 20 49 14 92 20 127 17 8 -1 -8 -13 -35
-28 -101 -53 -440 -256 -456 -272 -9 -9 -26 -45 -38 -81 -23 -72 -75 -290 -86
-360 -4 -25 -9 -53 -11 -63 -3 -16 47 -17 930 -17 513 0 935 2 938 5 7 7 -37
219 -66 313 -34 113 -64 170 -106 201 -19 14 -37 28 -40 31 -3 4 -23 19 -45
36 -46 33 -49 36 -173 140 -50 42 -91 79 -89 80 2 2 27 -3 57 -11 30 -8 56
-13 57 -11 2 2 -13 23 -33 47 -20 24 -53 64 -73 88 -65 79 -100 111 -123 112
-52 3 -52 3 -53 46 0 22 3 39 8 36 4 -2 7 -11 7 -20 0 -13 2 -14 17 -2 11 10
14 10 9 2 -4 -7 -3 -13 3 -13 6 0 13 11 17 25 4 16 15 27 30 30 13 3 35 7 49
10 28 6 34 25 8 26 -14 0 -15 2 -4 6 9 4 25 -7 41 -25 l26 -31 0 47 c-1 31 3
47 11 47 16 0 93 47 93 57 0 4 -11 3 -25 -2 -14 -5 -25 -6 -25 -1 0 12 59 61
73 61 7 0 23 9 37 20 15 12 18 18 8 14 -24 -8 -23 -3 12 66 19 37 26 60 18 60
-6 0 1 14 17 30 19 20 24 30 14 31 -8 0 -1 5 14 11 l29 10 -32 29 c-17 16 -36
29 -42 29 -5 0 0 9 13 21 19 16 20 19 6 15 -11 -3 -31 -9 -45 -12 l-27 -5 28
16 c35 20 34 25 -5 20 -39 -5 -60 6 -89 46 l-22 32 28 -19 29 -19 -19 32 c-29
50 -63 86 -93 99 l-27 12 25 2 c24 1 24 1 6 15 -11 8 -35 15 -54 15 -45 0 -32
18 20 26 33 6 37 9 23 17 -10 5 -39 7 -66 5 -42 -4 -49 -2 -49 12 0 10 -20 38
-44 63 -31 32 -40 49 -33 56 6 6 7 11 1 11 -17 0 -33 -15 -42 -39 l-8 -23 -32
27 c-18 15 -38 25 -46 22 -8 -3 -23 3 -34 13 -24 23 -35 15 -20 -14 10 -18 6
-17 -26 7 -20 16 -53 31 -74 33 l-37 6 25 -21 25 -20 -59 20 c-74 24 -84 24
-61 -1 23 -25 23 -25 -65 5 -98 33 -131 32 -58 -3z"/>
</g>
</svg>
